<svg version="1.1" xmlns="http://www.w3.org/2000/svg" xmlns:xlink="http://www.w3.org/1999/xlink" x="0px" y="0px" width="500px"
	 height="294.7px" viewBox="0 0 500 294.7" style="overflow:visible;enable-background:new 0 0 500 294.7;" xml:space="preserve">
<style type="text/css">
	.st0{fill:#FFA92E;}
	.st1{clip-path:url(#SVGID_2_);}
	.st2{clip-path:url(#SVGID_4_);}
	.st3{clip-path:url(#SVGID_6_);}
	.st4{clip-path:url(#SVGID_8_);}
	.st5{clip-path:url(#SVGID_10_);}
	.st6{clip-path:url(#SVGID_12_);}
	.st7{clip-path:url(#SVGID_14_);}
	.st8{clip-path:url(#SVGID_16_);}
	.st9{clip-path:url(#SVGID_18_);}
	.st10{clip-path:url(#SVGID_20_);}
</style>
<defs>
</defs>
<g>
	<rect x="309.2" y="2.8" class="st0" width="28.2" height="175.4"/>
	<g>
		<path class="st0" d="M202.3,178.3H148c5.6-14.4,13-33.3,18.7-48C170.1,149.7,182.7,168.5,202.3,178.3"/>
	</g>
	<polygon class="st0" points="216.1,0 201.3,39 253.4,178.3 283.6,178.3 	"/>
	<g>
		<defs>
			<rect id="SVGID_1_" x="0" width="500" height="294.7"/>
		</defs>
		<clipPath id="SVGID_2_">
			<use xlink:href="#SVGID_1_"  style="overflow:visible;"/>
		</clipPath>
		<path class="st1" d="M373.5,294.4c0,0-29.4-11.9-29.4-47.6c0-36.4,27.9-47.4,27.9-47.4s-11.5,10.1-11.5,47.4
			C360.5,279.9,373.5,294.4,373.5,294.4"/>
		<path class="st1" d="M402.3,294.4c0,0,29.4-11.9,29.4-47.6c0-36.4-27.9-47.4-27.9-47.4s11.5,10.1,11.5,47.4
			C415.3,279.9,402.3,294.4,402.3,294.4"/>
		<path class="st1" d="M49.1,289.6c0,0,1.2-4.7,1.7-8.3c1-7-1.1-13.2-7.1-17.3c-5.6-3.8-11.7-7-17.4-10.5
			c-5.3-3.3-10.8-6.2-15.6-10.1c-8.9-7.2-14.8-22.3-7.1-36.5c0.5-0.9,2-3,2-3s0,3.7,0.4,7.5c0.7,5.2,3.4,9.4,7.4,12.5
			c4.3,3.3,8.9,6.4,13.5,9.3c7,4.5,14.1,8.7,21.1,13c10.7,6.6,13.4,18.6,10.7,29C56.3,284.9,49.1,289.6,49.1,289.6"/>
	</g>
	<polygon points="56.7,221.1 40.7,199.9 56.7,199.9 	"/>
	<polygon points="1.2,293.9 17.2,293.9 1.2,272.6 	"/>
	<g>
		<defs>
			<rect id="SVGID_3_" x="0" width="500" height="294.7"/>
		</defs>
		<clipPath id="SVGID_4_">
			<use xlink:href="#SVGID_3_"  style="overflow:visible;"/>
		</clipPath>
		<path class="st2" d="M489.5,289.6c0,0,1.2-4.7,1.7-8.3c1-7-1.1-13.2-7.1-17.3c-5.6-3.8-11.7-7-17.4-10.5
			c-5.3-3.3-10.8-6.2-15.6-10.1c-8.9-7.2-14.8-22.3-7.2-36.5c0.5-0.9,2-3,2-3s0,3.7,0.4,7.5c0.7,5.2,3.4,9.4,7.4,12.5
			c4.3,3.3,8.9,6.4,13.5,9.3c7,4.5,14.1,8.7,21.1,13c10.7,6.6,13.4,18.6,10.7,29C496.7,284.9,489.5,289.6,489.5,289.6"/>
	</g>
	<polygon points="497,221.1 481,199.9 497,199.9 	"/>
	<polygon points="441.5,293.9 457.5,293.9 441.5,272.6 	"/>
	<polygon points="67.8,221.1 83.9,199.9 67.8,199.9 	"/>
	<rect x="98.3" y="199.9" width="15.1" height="94.1"/>
	<polygon points="207.6,221.1 191.6,199.9 207.6,199.9 	"/>
	<g>
		<defs>
			<rect id="SVGID_5_" x="0" width="500" height="294.7"/>
		</defs>
		<clipPath id="SVGID_6_">
			<use xlink:href="#SVGID_5_"  style="overflow:visible;"/>
		</clipPath>
		<path class="st3" d="M176.8,294.7c-33.2,0-33.3-23.4-33.3-48.1v-46.7h15.1v42.7C158.6,270.7,158.2,288.6,176.8,294.7"/>
	</g>
	<rect x="313.9" y="199.9" width="15.1" height="94.1"/>
	<rect x="222.3" y="199.9" width="15.1" height="94.1"/>
	<g>
		<defs>
			<rect id="SVGID_7_" x="0" width="500" height="294.7"/>
		</defs>
		<clipPath id="SVGID_8_">
			<use xlink:href="#SVGID_7_"  style="overflow:visible;"/>
		</clipPath>
		<path class="st4" d="M270.4,292.2c0,0,29.4-11.3,29.4-45.4c0-34.7-27.9-45.2-27.9-45.2s11.5,9.6,11.5,45.2
			C283.4,278.4,270.4,292.2,270.4,292.2"/>
	</g>
	<polygon points="366.9,138.5 396.8,178.1 366.9,178.1 	"/>
	<polygon points="497,42.5 467.2,2.9 497,2.9 	"/>
	<polygon points="497,180.4 363.7,2.9 398.9,2.8 497,133.5 	"/>
	<g>
		<defs>
			<rect id="SVGID_9_" x="0" width="500" height="294.7"/>
		</defs>
		<clipPath id="SVGID_10_">
			<use xlink:href="#SVGID_9_"  style="overflow:visible;"/>
		</clipPath>
		<path class="st5" d="M90.5,175.1c0,0,54.6-21.1,54.6-84.7c0-64.7-51.8-84.3-51.8-84.3s21.4,18,21.4,84.3
			C114.6,149.3,90.5,175.1,90.5,175.1"/>
	</g>
	<rect x="1.2" y="2.8" width="28.2" height="175.4"/>
</g>
</svg>
